<svg width="30" height="26" viewBox="0 0 30 26" fill="none" xmlns="http://www.w3.org/2000/svg">
<path d="M26.9454 1C28.0801 1 29 1.77864 29 2.73913L29 23.2609C29 24.2214 28.0801 25 26.9454 25H3.05495C1.92021 25 1.00033 24.2214 1.00033 23.2609L1.00033 2.73913C1.00033 1.77864 1.92021 1 3.05495 1L26.9454 1Z" fill="#6892FF"/>
<path d="M20.4048 1L20.4048 25M1 7.5H6.70729C7.96811 7.5 8.99021 8.39543 8.99021 9.5V25M20.4048 7H28.9657M20.4048 13H28.9657M20.4048 19H28.9657M1 19H8.99021M1 14H8.99021M1.00033 2.73913L1.00033 23.2609C1.00033 24.2214 1.92021 25 3.05495 25H26.9454C28.0801 25 29 24.2214 29 23.2609L29 2.73913C29 1.77864 28.0801 1 26.9454 1L3.05495 1C1.92021 1 1.00033 1.77864 1.00033 2.73913Z" stroke="white" stroke-linecap="round"/>
</svg>
